<?xml version="1.0" encoding="UTF-8" standalone="no"?>
<!-- Created with Inkscape (http://www.inkscape.org/) -->

<svg
   xmlns:dc="http://purl.org/dc/elements/1.1/"
   xmlns:cc="http://creativecommons.org/ns#"
   xmlns:rdf="http://www.w3.org/1999/02/22-rdf-syntax-ns#"
   xmlns:svg="http://www.w3.org/2000/svg"
   xmlns="http://www.w3.org/2000/svg"
   xmlns:sodipodi="http://sodipodi.sourceforge.net/DTD/sodipodi-0.dtd"
   xmlns:inkscape="http://www.inkscape.org/namespaces/inkscape"
   width="210mm"
   height="297mm"
   viewBox="0 0 210 297"
   version="1.1"
   id="svg8"
   inkscape:version="0.92.4 (5da689c313, 2019-01-14)"
   sodipodi:docname="prueba.svg">
  <defs
     id="defs2">
    <inkscape:perspective
       sodipodi:type="inkscape:persp3d"
       inkscape:vp_x="0 : 148.5 : 1"
       inkscape:vp_y="0 : 1000 : 0"
       inkscape:vp_z="210 : 148.5 : 1"
       inkscape:persp3d-origin="105 : 99 : 1"
       id="perspective4644" />
  </defs>
  <sodipodi:namedview
     id="base"
     pagecolor="#ffffff"
     bordercolor="#666666"
     borderopacity="1.0"
     inkscape:pageopacity="0.0"
     inkscape:pageshadow="2"
     inkscape:zoom="0.47749719"
     inkscape:cx="396.85039"
     inkscape:cy="561.25984"
     inkscape:document-units="mm"
     inkscape:current-layer="layer1"
     showgrid="false"
     inkscape:window-width="1366"
     inkscape:window-height="705"
     inkscape:window-x="-8"
     inkscape:window-y="-8"
     inkscape:window-maximized="1"
     showguides="true" />
  <metadata
     id="metadata5">
    <rdf:RDF>
      <cc:Work
         rdf:about="">
        <dc:format>image/svg+xml</dc:format>
        <dc:type
           rdf:resource="http://purl.org/dc/dcmitype/StillImage" />
        <dc:title />
      </cc:Work>
    </rdf:RDF>
  </metadata>
  <g
     inkscape:label="Capa 1"
     inkscape:groupmode="layer"
     id="layer1">
    <path
       id="path3729"
       d="m 43.041961,58.568354 c -0.109222,3.243125 -0.08626,6.490118 -0.08377,9.734949 0.09733,2.565644 -0.0972,5.150263 0.127553,7.708961 0.159689,2.787433 0.596786,5.531292 1.120523,8.264064 0.509114,3.53749 1.951862,6.796091 3.415301,9.990524 0.318069,0.705022 0.630497,1.412896 0.954211,2.115066 0.955137,2.071796 2.529638,4.348312 3.08403,6.520312 0.07769,1.58636 -1.069937,2.72058 -1.784234,4.00655 -2.560778,4.63967 -7.934815,6.84376 -12.762128,8.20857 -1.147366,0.2726 -0.570937,0.1489 -1.729303,0.37104 0,0 8.447982,-6.74093 8.447982,-6.74093 v 0 c 1.125801,-0.27109 0.564332,-0.12338 1.684325,-0.4435 3.684702,-1.18563 7.070597,-4.11362 -6.959087,4.64815 -0.209728,0.13097 0.447785,-0.20752 0.655365,-0.34224 0.657787,-0.42692 0.564698,-0.44048 0.98505,-1.11803 0.552224,-1.221 1.266994,-2.27815 2.061568,-3.33191 -0.04498,-1.04368 -0.493746,-1.86273 -0.94686,-2.78775 -0.926538,-1.89151 -1.855556,-3.77943 -2.674133,-5.727706 -1.545729,-3.235987 -3.197963,-6.530411 -3.689528,-10.156386 -0.523017,-2.755931 -0.995439,-5.518766 -1.256131,-8.318341 -0.241941,-2.611559 0.02705,-5.252402 -0.04422,-7.872412 0.0025,-3.214852 0.02659,-6.432005 -0.08377,-9.645081 0,0 9.477248,-5.0839 9.477248,-5.0839 z"
       inkscape:connector-curvature="0"
       style="stroke-width:0.25786242" />
    <path
       id="path3731"
       d="m 34.83393,58.74373 c 5.787229,-1.95512 11.627988,-3.776263 17.544801,-5.299988 5.341779,-1.405683 10.763186,-2.459357 16.19604,-3.440062 0.802121,-0.126624 1.603214,-0.259956 2.406364,-0.379875 3.189901,-0.476285 1.006695,-0.08361 3.900011,-0.622075 1.448835,-0.26964 2.504062,-0.539279 3.97636,-0.437981 2.479564,0.522309 3.590925,2.798358 4.796652,4.788548 1.461752,2.304942 2.737332,4.623059 3.473762,7.257825 0.468675,2.214377 0.862764,4.520703 0.543645,6.790373 -0.207388,1.47498 -0.674651,2.749811 -1.117796,4.166732 -1.805281,4.972367 -4.301826,9.65609 -6.908654,14.24604 -2.546411,4.515739 -5.690968,8.621252 -9.484977,12.164321 -2.889443,2.698332 -4.414379,3.702112 -7.551533,6.038582 -8.010462,5.43963 -16.335769,10.4873 -25.06527,14.69095 -3.349863,1.7076 -7.133371,1.50149 -10.789753,1.57834 -0.775347,0.0123 -1.550694,0.0247 -2.326041,0.037 0,0 8.798561,-6.41405 8.798561,-6.41405 v 0 c 0.76663,-0.0123 1.53326,-0.0246 2.299893,-0.0369 3.64158,-0.14241 7.310374,-0.23199 10.596274,-2.00524 1.217298,-0.58486 4.781593,-2.50459 3.630867,-1.79769 -2.246202,1.37986 -4.565542,2.63728 -6.830666,3.98585 -0.961615,0.57251 1.957951,-1.08529 2.919775,-1.65745 3.024259,-1.79904 4.080838,-2.55425 7.082949,-4.54273 3.108153,-2.23757 4.746394,-3.28488 7.600796,-5.8789 3.73117,-3.390817 6.803125,-7.345351 9.232185,-11.756524 2.609242,-4.509182 5.116238,-9.104079 6.932065,-14.00026 0.261819,-0.820648 0.983319,-2.968516 1.147445,-3.889608 0.381791,-2.142638 0.02249,-4.337867 -0.410411,-6.437701 -0.709067,-2.526803 -1.966531,-4.757515 -3.373657,-6.965024 -1.045599,-1.701443 -1.965666,-3.703476 -4.203433,-3.831939 -3.327201,0.191701 -6.601589,1.10713 -9.91866,1.42766 -5.405514,0.97278 -10.783078,2.084543 -16.100232,3.467954 -5.998358,1.551758 -11.975787,3.318746 -17.711588,5.671614 0,0 8.714226,-6.917812 8.714226,-6.917812 z"
       inkscape:connector-curvature="0"
       style="stroke-width:0.26458332" />
    <path
       id="path3733"
       d="m 90.327044,77.221569 c -1.144404,9.118457 -1.328772,18.334976 -1.526167,27.518821 -0.344164,10.76181 1.321701,21.41395 3.319802,31.92482 1.425004,7.35546 2.476976,14.77898 3.666764,22.17779 0.114002,0.7222 0.228005,1.44441 0.342008,2.16662 0,0 -9.163661,5.09154 -9.163661,5.09154 v 0 c -0.08621,-0.73504 -0.17241,-1.47008 -0.258613,-2.20513 -0.946168,-7.46795 -1.917163,-14.93236 -3.310715,-22.32625 -1.906937,-10.61273 -3.522136,-21.37014 -3.260359,-32.20609 0.176682,-9.06031 0.345291,-18.121824 0.752366,-27.174689 0,0 9.438575,-4.967432 9.438575,-4.967432 z"
       inkscape:connector-curvature="0"
       style="stroke-width:0.25786242" />
    <path
       id="path3735"
       d="m 87.101549,78.745841 c 2.940674,-0.540364 5.850989,-1.233569 8.813922,-1.63621 3.46622,-0.331367 6.949009,-0.377491 10.405929,0.05317 3.13386,0.583112 5.37844,1.333354 7.5346,3.852865 1.577,2.277917 1.53128,5.226243 1.65216,7.929099 0.0408,4.160639 -0.98686,6.618478 -3.19756,9.997898 -2.23441,3.249487 -5.3957,5.558077 -8.36206,8.002587 -1.8118,1.5673 -3.39518,3.39944 -5.300848,4.84597 -7.670273,5.14898 -8.097489,5.99045 -14.589253,6.29638 0,0 8.502667,-6.58004 8.502667,-6.58004 v 0 c 5.67615,-0.39879 8.585474,-3.12137 -3.789499,4.32485 2.097044,-1.22374 3.69216,-3.12373 5.460461,-4.79605 2.961682,-2.42813 6.189342,-4.63883 8.552592,-7.74641 2.25785,-3.18023 3.31827,-5.238288 3.38687,-9.288032 -0.0724,-2.433309 0.0164,-5.137581 -1.34623,-7.220516 -1.83939,-2.097114 -4.35307,-2.898823 -6.996723,-3.266913 -3.437908,-0.344996 -6.896857,-0.221936 -10.325089,0.215669 -2.974942,0.454713 -5.919907,1.085554 -8.852088,1.781345 0,0 8.450149,-6.765666 8.450149,-6.765666 z"
       inkscape:connector-curvature="0"
       style="stroke-width:0.25786242" />
    <path
       id="path3737"
       d="m 119.86425,130.47826 c 0.11678,7.23696 1.40133,14.40465 2.59062,21.51415 1.20291,7.08926 2.67647,14.12845 4.34799,21.11118 0.66158,1.7223 0.55673,3.89097 1.57377,5.47495 0.30714,0.47836 0.56289,0.53555 1.02498,0.77705 2.7629,0.50996 5.61762,0.36943 8.41501,0.35597 0,0 -8.41857,6.44353 -8.41857,6.44353 v 0 c -2.86846,0.004 -6.25049,0.38091 -8.93362,-0.75128 -0.61599,-0.49035 -0.89501,-0.61828 -1.30852,-1.35009 -0.9753,-1.72599 -0.85754,-3.93063 -1.45079,-5.78579 -1.49773,-7.10066 -2.65766,-14.27477 -3.89418,-21.42934 -1.27305,-7.06611 -2.63539,-14.1345 -3.40903,-21.28444 0,0 9.46234,-5.07589 9.46234,-5.07589 z"
       inkscape:connector-curvature="0"
       style="stroke-width:0.25786242" />
    <path
       id="path3739"
       d="m 134.40435,179.55492 c 2.38416,0.0709 4.76998,0.0416 7.15477,0.0282 2.2383,-0.0224 4.47643,0.0161 6.71476,0.015 0,0 -8.50586,6.50621 -8.50586,6.50621 v 0 c -2.25138,-0.001 -4.50256,0.0372 -6.75391,0.015 -2.40937,-0.0138 -4.81967,-0.0414 -7.22846,0.0282 0,0 8.6187,-6.59253 8.6187,-6.59253 z"
       inkscape:connector-curvature="0"
       style="stroke-width:0.25786242" />
    <path
       id="path3741"
       d="m 165.13768,165.592 c 0.18531,7.24708 0.22383,14.49682 0.28739,21.74583 0.0829,6.88556 0.14957,13.77134 0.26763,20.65636 0.0793,0.74702 0.0415,2.15779 0.65455,2.83426 0.92925,1.02539 3.79376,-0.1699 4.79345,-0.46416 3.81343,-1.37935 7.75695,-2.2477 11.72874,-2.93008 0.96341,-0.32366 1.99846,-0.36898 2.96355,-0.68815 0.37929,-0.12544 0.73169,-0.32767 1.09754,-0.4915 -2.72237,1.58665 -5.38262,3.29765 -8.16711,4.75994 -0.35244,0.18509 0.58836,-0.56125 0.81613,-0.89953 0.30013,-0.44573 0.50321,-0.95571 0.75481,-1.43357 0.22278,-0.78005 0.50352,-1.5443 0.66833,-2.34015 0.53229,-2.57034 0.81264,-5.90899 0.98997,-8.44652 0.46585,-6.66631 0.55346,-13.32307 0.55001,-20.00345 -0.14255,-4.84963 -0.10444,-9.71816 -0.56703,-14.55213 -0.20613,-2.154 -0.51452,-4.08537 -1.35729,-6.04761 -1.28948,-1.74192 -3.30341,-1.64485 -5.21565,-1.61756 -1.60804,0.0693 -3.21515,0.1533 -4.82413,0.19525 -2.15338,-0.17414 -4.16866,0.51312 -6.20697,1.13373 -3.35964,1.64828 -8.87814,4.91924 6.38992,-3.94805 0.25816,-0.14994 -0.47726,0.36559 -0.7018,0.56675 -0.57828,0.51809 -0.60131,0.60464 -1.06284,1.2096 -0.8086,1.30913 -1.29641,2.7155 -1.53529,4.24728 -0.20519,1.708 -0.21236,3.43243 -0.21908,5.15121 0.0293,1.1765 -0.018,2.33859 -0.16854,3.50382 0,0 -9.52488,4.92831 -9.52488,4.92831 v 0 c 0.16544,-1.12091 0.33206,-2.21849 0.22817,-3.35999 0.008,-1.76546 0.0199,-3.53364 0.17602,-5.29295 0.18446,-1.7494 0.50074,-3.1567 1.31556,-4.70441 0.41377,-0.75885 0.90275,-1.68353 1.63971,-2.15912 3.85787,-2.48962 7.48775,-5.44733 11.80104,-6.8954 2.11714,-0.60881 4.2375,-1.08208 6.44831,-0.98122 1.60674,-0.0512 3.21307,-0.14652 4.82098,-0.13188 2.31881,0.11203 4.46035,0.51651 5.78261,2.75945 0.87847,2.37373 1.03489,3.99894 1.15638,6.5868 0.23234,4.94948 0.0293,9.90891 0.10471,14.86059 -0.0205,7.30038 0.003,6.36584 -0.10331,13.72458 -0.07,4.83707 -0.008,9.7681 -0.61879,14.57761 -0.1055,0.83072 -0.29954,1.64628 -0.44932,2.46942 -0.13403,0.36316 -0.80068,2.45817 -1.28238,2.79084 -6.7689,4.67486 -7.99856,6.09616 -14.00491,7.1029 -3.9795,0.70394 -7.8804,1.73603 -11.72211,3.04028 -2.38672,0.57323 -5.49949,1.24757 -6.19761,-2.17614 -0.12952,-0.63516 -0.10178,-1.29485 -0.15267,-1.94227 0.10684,-6.94581 0.14272,-13.89269 0.0965,-20.83933 -0.0915,-7.1298 -0.15803,-14.27834 -0.81534,-21.38022 0,0 9.36502,-5.11942 9.36502,-5.11942 z"
       inkscape:connector-curvature="0"
       style="stroke-width:0.25786242" />
    <path
       id="path3745"
       d="m 110.29052,138.14784 c -0.71187,-1.9017 -1.30882,-3.83343 -1.6945,-5.83725 -0.17197,-1.33956 -0.0989,-0.67139 -0.21986,-2.00443 0,0 9.39342,-5.14642 9.39342,-5.14642 v 0 c 0.0922,1.27274 0.0336,0.63847 0.17575,1.90286 0.32218,1.96294 0.84107,3.87795 1.68676,5.66874 0,0 -9.34157,5.4165 -9.34157,5.4165 z"
       inkscape:connector-curvature="0"
       style="stroke-width:0.25786242" />
    <flowRoot
       xml:space="preserve"
       id="flowRoot3747"
       style="fill:black;fill-opacity:1;stroke:none;font-family:sans-serif;font-style:normal;font-weight:normal;font-size:40px;line-height:1.25;letter-spacing:0px;word-spacing:0px"><flowRegion
         id="flowRegion3749"><rect
           id="rect3751"
           width="422.85715"
           height="45.71426"
           x="197.14285"
           y="865.37683" /></flowRegion><flowPara
         id="flowPara3753" /></flowRoot>    <text
       xml:space="preserve"
       style="font-style:normal;font-weight:normal;font-size:10.58333302px;line-height:1.25;font-family:sans-serif;letter-spacing:0px;word-spacing:0px;fill:#000000;fill-opacity:1;stroke:none;stroke-width:0.26458332"
       x="124.73214"
       y="238.03571"
       id="text3757"><tspan
         sodipodi:role="line"
         id="tspan3755"
         x="124.73214"
         y="247.69121"
         style="stroke-width:0.26458332" /></text>
    <rect
       style="fill:#0000ff;stroke-width:0.26458332"
       id="rect4564"
       width="0"
       height="82.183487"
       x="34.017857"
       y="99.911743" />
    <g
       sodipodi:type="inkscape:box3d"
       id="g4646"
       style="fill:#0000ff"
       inkscape:perspectiveID="#perspective4644"
       inkscape:corner0="-0.26895978 : 0.12607212 : 0 : 1"
       inkscape:corner7="-0.43992887 : 0.067942346 : 0.25 : 1">
      <path
         sodipodi:type="inkscape:box3dside"
         id="path4648"
         style="fill:#353564;fill-rule:evenodd;stroke:none;stroke-linejoin:round"
         inkscape:box3dsidetype="6"
         d="m 143.63095,43.755948 v 79.516522 l 16.91293,6.42877 V 70.448038 Z"
         points="143.63095,123.27247 160.54388,129.70124 160.54388,70.448038 143.63095,43.755948 " />
      <path
         sodipodi:type="inkscape:box3dside"
         id="path4658"
         style="fill:#e9e9ff;fill-rule:evenodd;stroke:none;stroke-linejoin:round"
         inkscape:box3dsidetype="11"
         d="m 160.54388,70.448038 33.8835,-16.473212 v 71.758854 l -33.8835,3.96756 z"
         points="194.42738,53.974826 194.42738,125.73368 160.54388,129.70124 160.54388,70.448038 " />
      <path
         sodipodi:type="inkscape:box3dside"
         id="path4650"
         style="fill:#4d4d9f;fill-rule:evenodd;stroke:none;stroke-linejoin:round"
         inkscape:box3dsidetype="5"
         d="m 143.63095,43.755948 43.84524,-31.974503 6.95119,42.193381 -33.8835,16.473212 z"
         points="187.47619,11.781445 194.42738,53.974826 160.54388,70.448038 143.63095,43.755948 " />
      <path
         sodipodi:type="inkscape:box3dside"
         id="path4656"
         style="fill:#afafde;fill-rule:evenodd;stroke:none;stroke-linejoin:round"
         inkscape:box3dsidetype="13"
         d="m 143.63095,123.27247 43.84524,-7.70104 6.95119,10.16225 -33.8835,3.96756 z"
         points="187.47619,115.57143 194.42738,125.73368 160.54388,129.70124 143.63095,123.27247 " />
      <path
         sodipodi:type="inkscape:box3dside"
         id="path4654"
         style="fill:#d7d7ff;fill-rule:evenodd;stroke:none;stroke-linejoin:round"
         inkscape:box3dsidetype="14"
         d="M 187.47619,11.781445 V 115.57143 l 6.95119,10.16225 V 53.974826 Z"
         points="187.47619,115.57143 194.42738,125.73368 194.42738,53.974826 187.47619,11.781445 " />
      <path
         sodipodi:type="inkscape:box3dside"
         id="path4652"
         style="fill:#8686bf;fill-rule:evenodd;stroke:none;stroke-linejoin:round"
         inkscape:box3dsidetype="3"
         d="M 143.63095,43.755948 187.47619,11.781445 V 115.57143 l -43.84524,7.70104 z"
         points="187.47619,11.781445 187.47619,115.57143 143.63095,123.27247 143.63095,43.755948 " />
    </g>
    <g
       sodipodi:type="inkscape:box3d"
       id="g4660"
       style="fill:#0000ff"
       inkscape:perspectiveID="#perspective4644"
       inkscape:corner0="2.8582678 : -0.037429741 : 0 : 1"
       inkscape:corner7="-0.28770441 : -0.056786078 : 0.25 : 1">
      <path
         sodipodi:type="inkscape:box3dside"
         id="path4662"
         style="fill:#353564;fill-rule:evenodd;stroke:none;stroke-linejoin:round"
         inkscape:box3dsidetype="6"
         d="m 27.214286,171.03077 v 5.01685 l 11.12304,-1.67635 v -4.71156 z"
         points="27.214286,176.04762 38.337326,174.37127 38.337326,169.65971 27.214286,171.03077 " />
      <path
         sodipodi:type="inkscape:box3dside"
         id="path4670"
         style="fill:#afafde;fill-rule:evenodd;stroke:none;stroke-linejoin:round"
         inkscape:box3dsidetype="13"
         d="M 27.214286,176.04762 147.41072,297.71625 163.67113,258.95055 38.337326,174.37127 Z"
         points="147.41072,297.71625 163.67113,258.95055 38.337326,174.37127 27.214286,176.04762 " />
      <path
         sodipodi:type="inkscape:box3dside"
         id="path4672"
         style="fill:#e9e9ff;fill-rule:evenodd;stroke:none;stroke-linejoin:round"
         inkscape:box3dsidetype="11"
         d="M 38.337326,169.65971 163.67113,238.8358 v 20.11475 L 38.337326,174.37127 Z"
         points="163.67113,238.8358 163.67113,258.95055 38.337326,174.37127 38.337326,169.65971 " />
      <path
         sodipodi:type="inkscape:box3dside"
         id="path4664"
         style="fill:#4d4d9f;fill-rule:evenodd;stroke:none;stroke-linejoin:round"
         inkscape:box3dsidetype="5"
         d="M 27.214286,171.03077 147.41072,270.54167 163.67113,238.8358 38.337326,169.65971 Z"
         points="147.41072,270.54167 163.67113,238.8358 38.337326,169.65971 27.214286,171.03077 " />
      <path
         sodipodi:type="inkscape:box3dside"
         id="path4668"
         style="fill:#d7d7ff;fill-rule:evenodd;stroke:none;stroke-linejoin:round"
         inkscape:box3dsidetype="14"
         d="m 147.41072,270.54167 v 27.17458 l 16.26041,-38.7657 V 238.8358 Z"
         points="147.41072,297.71625 163.67113,258.95055 163.67113,238.8358 147.41072,270.54167 " />
      <path
         sodipodi:type="inkscape:box3dside"
         id="path4666"
         style="fill:#8686bf;fill-rule:evenodd;stroke:none;stroke-linejoin:round"
         inkscape:box3dsidetype="3"
         d="m 27.214286,171.03077 120.196434,99.5109 v 27.17458 L 27.214286,176.04762 Z"
         points="147.41072,270.54167 147.41072,297.71625 27.214286,176.04762 27.214286,171.03077 " />
    </g>
  </g>
</svg>
